<svg xmlns="http://www.w3.org/2000/svg" xmlns:xlink="http://www.w3.org/1999/xlink" width="345" zoomAndPan="magnify" viewBox="0 0 258.75 93.749996" height="125" preserveAspectRatio="xMidYMid meet" version="1.0"><defs><g></g><clipPath id="227eaed82a"><path d="M 2 15 L 256 15 L 256 93.5 L 2 93.5 Z M 2 15 " clip-rule="nonzero"></path></clipPath><clipPath id="93c82592b6"><rect x="0" width="254" y="0" height="79"></rect></clipPath><clipPath id="8dda4a0a48"><path d="M 124 6 L 166 6 L 166 39 L 124 39 Z M 124 6 " clip-rule="nonzero"></path></clipPath><clipPath id="3fbd1bd434"><path d="M 121.644531 23.109375 L 147.765625 -5.707031 L 179.359375 22.925781 L 153.234375 51.746094 Z M 121.644531 23.109375 " clip-rule="nonzero"></path></clipPath><clipPath id="c5b5119c34"><path d="M 121.644531 23.109375 L 147.765625 -5.707031 L 179.359375 22.925781 L 153.234375 51.746094 Z M 121.644531 23.109375 " clip-rule="nonzero"></path></clipPath><clipPath id="2fe816314c"><path d="M 139 18 L 164 18 L 164 49 L 139 49 Z M 139 18 " clip-rule="nonzero"></path></clipPath><clipPath id="bcc2e39c18"><path d="M 121.644531 23.109375 L 147.765625 -5.707031 L 179.359375 22.925781 L 153.234375 51.746094 Z M 121.644531 23.109375 " clip-rule="nonzero"></path></clipPath><clipPath id="f63b7b9af7"><path d="M 121.644531 23.109375 L 147.765625 -5.707031 L 179.359375 22.925781 L 153.234375 51.746094 Z M 121.644531 23.109375 " clip-rule="nonzero"></path></clipPath></defs><g clip-path="url(#227eaed82a)"><g transform="matrix(1, 0, 0, 1, 2, 15)"><g clip-path="url(#93c82592b6)"><g fill="#373837" fill-opacity="1"><g transform="translate(0.900188, 69.7353)"><g><path d="M 16.46875 1.160156 C 13.710938 1.160156 11.292969 0.628906 9.214844 -0.433594 C 7.132812 -1.5 5.5 -2.960938 4.316406 -4.824219 C 3.132812 -6.6875 2.539062 -8.800781 2.539062 -11.171875 C 2.539062 -13.878906 3.242188 -16.164062 4.644531 -18.027344 C 6.046875 -19.890625 7.929688 -21.292969 10.300781 -22.234375 C 12.671875 -23.179688 15.28125 -23.648438 18.136719 -23.648438 C 19.78125 -23.648438 21.304688 -23.515625 22.707031 -23.25 C 24.109375 -22.984375 25.332031 -22.671875 26.371094 -22.308594 C 27.410156 -21.945312 28.195312 -21.59375 28.726562 -21.253906 L 28.726562 -23.503906 C 28.726562 -26.308594 27.734375 -28.535156 25.753906 -30.179688 C 23.769531 -31.824219 21.351562 -32.644531 18.5 -32.644531 C 16.46875 -32.644531 14.570312 -32.199219 12.804688 -31.304688 C 11.039062 -30.410156 9.648438 -29.164062 8.632812 -27.566406 L 3.988281 -31.050781 C 4.957031 -32.5 6.167969 -33.757812 7.617188 -34.820312 C 9.066406 -35.886719 10.722656 -36.707031 12.585938 -37.289062 C 14.449219 -37.867188 16.417969 -38.160156 18.5 -38.160156 C 23.527344 -38.160156 27.46875 -36.828125 30.324219 -34.167969 C 33.175781 -31.507812 34.605469 -27.929688 34.605469 -23.433594 L 34.605469 0 L 28.726562 0 L 28.726562 -5.296875 L 28.4375 -5.296875 C 27.808594 -4.230469 26.914062 -3.203125 25.753906 -2.210938 C 24.59375 -1.222656 23.226562 -0.410156 21.65625 0.21875 C 20.082031 0.847656 18.355469 1.160156 16.46875 1.160156 Z M 17.046875 -4.28125 C 19.175781 -4.28125 21.121094 -4.8125 22.886719 -5.875 C 24.652344 -6.941406 26.066406 -8.367188 27.132812 -10.15625 C 28.195312 -11.945312 28.726562 -13.90625 28.726562 -16.03125 C 27.617188 -16.804688 26.226562 -17.433594 24.554688 -17.917969 C 22.886719 -18.402344 21.0625 -18.644531 19.078125 -18.644531 C 15.546875 -18.644531 12.960938 -17.917969 11.316406 -16.46875 C 9.671875 -15.015625 8.851562 -13.226562 8.851562 -11.097656 C 8.851562 -9.066406 9.625 -7.421875 11.171875 -6.167969 C 12.71875 -4.910156 14.679688 -4.28125 17.046875 -4.28125 Z M 17.046875 -4.28125 "></path></g></g></g><g fill="#373837" fill-opacity="1"><g transform="translate(39.418818, 69.7353)"><g><path d="M 1.8125 -31.410156 L 1.8125 -36.996094 L 8.707031 -36.996094 L 8.707031 -31.410156 Z M 18.644531 0.582031 C 15.546875 0.582031 13.058594 -0.351562 11.171875 -2.210938 C 9.285156 -4.074219 8.34375 -6.578125 8.34375 -9.722656 L 8.34375 -47.445312 L 14.507812 -47.445312 L 14.507812 -11.246094 C 14.507812 -9.164062 14.933594 -7.628906 15.777344 -6.636719 C 16.625 -5.644531 17.894531 -5.152344 19.585938 -5.152344 C 20.359375 -5.152344 21.085938 -5.257812 21.761719 -5.476562 C 22.441406 -5.695312 23.09375 -5.996094 23.722656 -6.382812 L 23.722656 -0.363281 C 22.949219 -0.0742188 22.148438 0.15625 21.328125 0.328125 C 20.507812 0.496094 19.609375 0.582031 18.644531 0.582031 Z M 14.144531 -31.410156 L 14.144531 -36.996094 L 23.578125 -36.996094 L 23.578125 -31.410156 Z M 14.144531 -31.410156 "></path></g></g></g><g fill="#373837" fill-opacity="1"><g transform="translate(65.823308, 69.7353)"><g><path d="M 4.496094 -51.941406 L 10.664062 -51.941406 L 10.664062 0 L 4.496094 0 Z M 4.496094 -51.941406 "></path></g></g></g><g fill="#373837" fill-opacity="1"><g transform="translate(80.984129, 69.7353)"><g><path d="M 16.46875 1.160156 C 13.710938 1.160156 11.292969 0.628906 9.214844 -0.433594 C 7.132812 -1.5 5.5 -2.960938 4.316406 -4.824219 C 3.132812 -6.6875 2.539062 -8.800781 2.539062 -11.171875 C 2.539062 -13.878906 3.242188 -16.164062 4.644531 -18.027344 C 6.046875 -19.890625 7.929688 -21.292969 10.300781 -22.234375 C 12.671875 -23.179688 15.28125 -23.648438 18.136719 -23.648438 C 19.78125 -23.648438 21.304688 -23.515625 22.707031 -23.25 C 24.109375 -22.984375 25.332031 -22.671875 26.371094 -22.308594 C 27.410156 -21.945312 28.195312 -21.59375 28.726562 -21.253906 L 28.726562 -23.503906 C 28.726562 -26.308594 27.734375 -28.535156 25.753906 -30.179688 C 23.769531 -31.824219 21.351562 -32.644531 18.5 -32.644531 C 16.46875 -32.644531 14.570312 -32.199219 12.804688 -31.304688 C 11.039062 -30.410156 9.648438 -29.164062 8.632812 -27.566406 L 3.988281 -31.050781 C 4.957031 -32.5 6.167969 -33.757812 7.617188 -34.820312 C 9.066406 -35.886719 10.722656 -36.707031 12.585938 -37.289062 C 14.449219 -37.867188 16.417969 -38.160156 18.5 -38.160156 C 23.527344 -38.160156 27.46875 -36.828125 30.324219 -34.167969 C 33.175781 -31.507812 34.605469 -27.929688 34.605469 -23.433594 L 34.605469 0 L 28.726562 0 L 28.726562 -5.296875 L 28.4375 -5.296875 C 27.808594 -4.230469 26.914062 -3.203125 25.753906 -2.210938 C 24.59375 -1.222656 23.226562 -0.410156 21.65625 0.21875 C 20.082031 0.847656 18.355469 1.160156 16.46875 1.160156 Z M 17.046875 -4.28125 C 19.175781 -4.28125 21.121094 -4.8125 22.886719 -5.875 C 24.652344 -6.941406 26.066406 -8.367188 27.132812 -10.15625 C 28.195312 -11.945312 28.726562 -13.90625 28.726562 -16.03125 C 27.617188 -16.804688 26.226562 -17.433594 24.554688 -17.917969 C 22.886719 -18.402344 21.0625 -18.644531 19.078125 -18.644531 C 15.546875 -18.644531 12.960938 -17.917969 11.316406 -16.46875 C 9.671875 -15.015625 8.851562 -13.226562 8.851562 -11.097656 C 8.851562 -9.066406 9.625 -7.421875 11.171875 -6.167969 C 12.71875 -4.910156 14.679688 -4.28125 17.046875 -4.28125 Z M 17.046875 -4.28125 "></path></g></g></g><g fill="#373837" fill-opacity="1"><g transform="translate(119.502759, 69.7353)"><g><path d="M 17.410156 1.160156 C 14.652344 1.160156 12.222656 0.714844 10.121094 -0.179688 C 8.015625 -1.074219 6.273438 -2.285156 4.898438 -3.808594 C 3.519531 -5.332031 2.492188 -6.988281 1.8125 -8.777344 L 7.328125 -11.246094 C 8.292969 -9.019531 9.695312 -7.304688 11.535156 -6.09375 C 13.371094 -4.882812 15.476562 -4.28125 17.847656 -4.28125 C 20.117188 -4.28125 22.015625 -4.738281 23.539062 -5.660156 C 25.0625 -6.578125 25.824219 -7.929688 25.824219 -9.722656 C 25.824219 -10.832031 25.511719 -11.765625 24.882812 -12.515625 C 24.253906 -13.261719 23.335938 -13.90625 22.125 -14.4375 C 20.917969 -14.96875 19.441406 -15.453125 17.699219 -15.886719 L 13.203125 -17.046875 C 11.460938 -17.53125 9.816406 -18.207031 8.269531 -19.078125 C 6.722656 -19.949219 5.476562 -21.074219 4.535156 -22.453125 C 3.589844 -23.832031 3.121094 -25.511719 3.121094 -27.496094 C 3.121094 -29.71875 3.773438 -31.628906 5.078125 -33.226562 C 6.382812 -34.820312 8.101562 -36.042969 10.230469 -36.890625 C 12.355469 -37.734375 14.628906 -38.160156 17.046875 -38.160156 C 19.175781 -38.160156 21.171875 -37.855469 23.03125 -37.25 C 24.894531 -36.648438 26.527344 -35.753906 27.929688 -34.566406 C 29.332031 -33.382812 30.394531 -31.917969 31.121094 -30.179688 L 25.753906 -27.710938 C 24.835938 -29.550781 23.601562 -30.832031 22.054688 -31.558594 C 20.507812 -32.28125 18.789062 -32.644531 16.902344 -32.644531 C 14.871094 -32.644531 13.105469 -32.199219 11.605469 -31.304688 C 10.109375 -30.410156 9.359375 -29.1875 9.359375 -27.640625 C 9.359375 -26.09375 9.976562 -24.929688 11.207031 -24.15625 C 12.441406 -23.382812 13.953125 -22.753906 15.742188 -22.269531 L 21.109375 -20.894531 C 24.738281 -19.972656 27.46875 -18.609375 29.308594 -16.792969 C 31.144531 -14.980469 32.066406 -12.769531 32.066406 -10.15625 C 32.066406 -7.835938 31.410156 -5.828125 30.105469 -4.136719 C 28.800781 -2.441406 27.035156 -1.136719 24.808594 -0.21875 C 22.585938 0.703125 20.117188 1.160156 17.410156 1.160156 Z M 17.410156 1.160156 "></path></g></g></g><g fill="#9dba9d" fill-opacity="1"><g transform="translate(153.679462, 69.7353)"><g><path d="M 29.816406 1.160156 C 25.996094 1.160156 22.464844 0.460938 19.222656 -0.941406 C 15.984375 -2.34375 13.167969 -4.292969 10.773438 -6.78125 C 8.378906 -9.273438 6.515625 -12.152344 5.1875 -15.414062 C 3.855469 -18.679688 3.191406 -22.199219 3.191406 -25.972656 C 3.191406 -29.742188 3.855469 -33.261719 5.1875 -36.527344 C 6.515625 -39.789062 8.378906 -42.667969 10.773438 -45.160156 C 13.167969 -47.648438 15.984375 -49.597656 19.222656 -51 C 22.464844 -52.402344 25.996094 -53.101562 29.816406 -53.101562 C 33.636719 -53.101562 37.167969 -52.402344 40.40625 -51 C 43.648438 -49.597656 46.464844 -47.648438 48.859375 -45.160156 C 51.253906 -42.667969 53.113281 -39.789062 54.445312 -36.527344 C 55.773438 -33.261719 56.441406 -29.742188 56.441406 -25.972656 C 56.441406 -22.199219 55.773438 -18.679688 54.445312 -15.414062 C 53.113281 -12.152344 51.253906 -9.273438 48.859375 -6.78125 C 46.464844 -4.292969 43.648438 -2.34375 40.40625 -0.941406 C 37.167969 0.460938 33.636719 1.160156 29.816406 1.160156 Z M 29.816406 -4.714844 C 33.589844 -4.714844 37.011719 -5.609375 40.082031 -7.398438 C 43.152344 -9.1875 45.605469 -11.691406 47.445312 -14.90625 C 49.28125 -18.125 50.199219 -21.8125 50.199219 -25.972656 C 50.199219 -30.179688 49.28125 -33.878906 47.445312 -37.070312 C 45.605469 -40.261719 43.152344 -42.753906 40.082031 -44.542969 C 37.011719 -46.332031 33.589844 -47.226562 29.816406 -47.226562 C 26.09375 -47.226562 22.683594 -46.332031 19.585938 -44.542969 C 16.492188 -42.753906 14.023438 -40.261719 12.1875 -37.070312 C 10.351562 -33.878906 9.429688 -30.179688 9.429688 -25.972656 C 9.429688 -21.8125 10.351562 -18.125 12.1875 -14.90625 C 14.023438 -11.691406 16.492188 -9.1875 19.585938 -7.398438 C 22.683594 -5.609375 26.09375 -4.714844 29.816406 -4.714844 Z M 29.816406 -4.714844 "></path></g></g></g><g fill="#9dba9d" fill-opacity="1"><g transform="translate(213.307177, 69.7353)"><g><path d="M 20.238281 1.160156 C 17.726562 1.160156 15.234375 0.628906 12.769531 -0.433594 C 10.300781 -1.5 8.125 -3.070312 6.238281 -5.152344 C 4.351562 -7.230469 2.972656 -9.816406 2.105469 -12.914062 L 7.980469 -15.308594 C 8.800781 -12.308594 10.300781 -9.792969 12.476562 -7.761719 C 14.652344 -5.730469 17.289062 -4.714844 20.386719 -4.714844 C 22.320312 -4.714844 24.097656 -5.066406 25.71875 -5.765625 C 27.335938 -6.46875 28.644531 -7.496094 29.632812 -8.851562 C 30.625 -10.203125 31.121094 -11.847656 31.121094 -13.785156 C 31.121094 -15.523438 30.699219 -17 29.851562 -18.207031 C 29.003906 -19.417969 27.734375 -20.492188 26.042969 -21.4375 C 24.351562 -22.378906 22.269531 -23.285156 19.804688 -24.15625 L 16.539062 -25.316406 C 15.089844 -25.851562 13.625 -26.492188 12.152344 -27.242188 C 10.675781 -27.988281 9.320312 -28.910156 8.089844 -29.996094 C 6.855469 -31.085938 5.875 -32.390625 5.152344 -33.914062 C 4.425781 -35.4375 4.0625 -37.238281 4.0625 -39.320312 C 4.0625 -41.835938 4.738281 -44.132812 6.09375 -46.210938 C 7.449219 -48.289062 9.308594 -49.960938 11.679688 -51.214844 C 14.050781 -52.472656 16.78125 -53.101562 19.878906 -53.101562 C 23.117188 -53.101562 25.839844 -52.511719 28.039062 -51.324219 C 30.238281 -50.140625 31.980469 -48.738281 33.261719 -47.117188 C 34.542969 -45.496094 35.402344 -44.011719 35.835938 -42.65625 L 30.105469 -40.191406 C 29.816406 -41.207031 29.257812 -42.257812 28.4375 -43.34375 C 27.617188 -44.433594 26.515625 -45.351562 25.136719 -46.101562 C 23.757812 -46.851562 22.03125 -47.226562 19.949219 -47.226562 C 18.257812 -47.226562 16.671875 -46.886719 15.199219 -46.210938 C 13.722656 -45.535156 12.539062 -44.601562 11.644531 -43.417969 C 10.75 -42.234375 10.300781 -40.867188 10.300781 -39.320312 C 10.300781 -37.144531 11.171875 -35.425781 12.914062 -34.167969 C 14.652344 -32.910156 17 -31.773438 19.949219 -30.757812 L 23.359375 -29.597656 C 24.90625 -29.066406 26.492188 -28.414062 28.109375 -27.640625 C 29.730469 -26.867188 31.242188 -25.875 32.644531 -24.664062 C 34.046875 -23.457031 35.183594 -21.96875 36.054688 -20.203125 C 36.925781 -18.4375 37.359375 -16.324219 37.359375 -13.855469 C 37.359375 -11.195312 36.839844 -8.910156 35.800781 -7 C 34.761719 -5.089844 33.394531 -3.53125 31.703125 -2.320312 C 30.007812 -1.113281 28.160156 -0.230469 26.152344 0.328125 C 24.144531 0.882812 22.175781 1.160156 20.238281 1.160156 Z M 20.238281 1.160156 "></path></g></g></g></g></g></g><g clip-path="url(#8dda4a0a48)"><g clip-path="url(#3fbd1bd434)"><g clip-path="url(#c5b5119c34)"><path fill="#6ea924" d="M 124.828125 21.089844 C 124.546875 22.375 124.617188 23.652344 124.992188 24.84375 C 125.378906 26.039062 126.070312 27.121094 127.046875 28.003906 L 136.378906 36.464844 C 137.347656 37.34375 138.492188 37.925781 139.71875 38.191406 C 140.941406 38.449219 142.222656 38.394531 143.480469 37.996094 L 150.765625 35.65625 C 151.859375 35.308594 152.453125 34.152344 152.105469 33.0625 C 151.757812 31.972656 150.601562 31.375 149.507812 31.722656 L 142.222656 34.0625 L 142.214844 34.066406 C 141.660156 34.246094 141.105469 34.277344 140.597656 34.164062 C 140.09375 34.050781 139.597656 33.796875 139.160156 33.398438 L 129.824219 24.9375 C 129.386719 24.539062 129.082031 24.074219 128.925781 23.585938 L 128.921875 23.578125 C 128.757812 23.085938 128.738281 22.53125 128.867188 21.953125 C 128.988281 21.386719 129.238281 20.898438 129.597656 20.503906 C 129.953125 20.109375 130.417969 19.804688 130.96875 19.632812 L 144.304688 15.355469 L 144.308594 15.347656 L 157.644531 11.054688 C 158.199219 10.878906 158.746094 10.851562 159.265625 10.960938 C 159.773438 11.074219 160.261719 11.328125 160.707031 11.730469 C 161.121094 12.105469 161.417969 12.542969 161.582031 12.992188 C 161.589844 13.019531 161.597656 13.050781 161.613281 13.078125 C 161.773438 13.582031 161.800781 14.144531 161.679688 14.703125 C 161.433594 15.816406 162.144531 16.914062 163.253906 17.152344 C 164.367188 17.398438 165.464844 16.6875 165.707031 15.582031 C 165.984375 14.285156 165.921875 12.996094 165.546875 11.820312 C 165.53125 11.769531 165.515625 11.71875 165.488281 11.671875 C 165.101562 10.53125 164.421875 9.5 163.488281 8.652344 C 162.515625 7.773438 161.375 7.191406 160.144531 6.925781 L 160.140625 6.917969 C 158.929688 6.660156 157.644531 6.722656 156.378906 7.128906 L 143.058594 11.40625 L 129.710938 15.699219 C 128.445312 16.109375 127.367188 16.800781 126.527344 17.722656 C 125.695312 18.640625 125.113281 19.785156 124.828125 21.089844 Z M 124.828125 21.089844 " fill-opacity="1" fill-rule="evenodd"></path></g></g></g><g clip-path="url(#2fe816314c)"><g clip-path="url(#bcc2e39c18)"><g clip-path="url(#f63b7b9af7)"><path fill="#9dba9d" d="M 145.527344 44.757812 L 147.800781 46.816406 C 148.769531 47.699219 149.914062 48.28125 151.140625 48.546875 C 152.371094 48.8125 153.652344 48.753906 154.902344 48.347656 C 154.953125 48.332031 155 48.316406 155.042969 48.296875 C 156.25 47.886719 157.28125 47.210938 158.085938 46.324219 C 158.914062 45.410156 159.5 44.265625 159.78125 42.96875 L 163.101562 27.621094 C 163.382812 26.320312 163.320312 25.035156 162.941406 23.855469 L 162.9375 23.851562 C 162.550781 22.65625 161.859375 21.574219 160.890625 20.695312 C 159.921875 19.816406 158.777344 19.234375 157.550781 18.96875 C 156.328125 18.707031 155.046875 18.765625 153.785156 19.171875 L 140.609375 23.40625 C 140.25 23.523438 139.953125 23.722656 139.71875 23.984375 C 139.234375 24.515625 139.046875 25.273438 139.285156 26 C 139.636719 27.085938 140.792969 27.679688 141.878906 27.328125 L 155.054688 23.09375 C 155.609375 22.914062 156.164062 22.882812 156.667969 22.996094 C 157.175781 23.105469 157.671875 23.363281 158.109375 23.761719 C 158.550781 24.160156 158.855469 24.628906 159.007812 25.113281 C 159.171875 25.621094 159.199219 26.183594 159.078125 26.738281 L 155.753906 42.089844 C 155.632812 42.65625 155.378906 43.144531 155.015625 43.546875 C 154.679688 43.917969 154.25 44.210938 153.738281 44.390625 C 153.707031 44.398438 153.675781 44.40625 153.644531 44.414062 C 153.078125 44.59375 152.523438 44.625 152.023438 44.519531 C 151.515625 44.40625 151.019531 44.148438 150.582031 43.75 L 148.308594 41.691406 C 147.460938 40.921875 146.148438 40.988281 145.382812 41.832031 C 144.617188 42.679688 144.675781 43.984375 145.527344 44.757812 Z M 145.527344 44.757812 " fill-opacity="1" fill-rule="evenodd"></path></g></g></g></svg>