<svg xmlns="http://www.w3.org/2000/svg" viewBox="4.775 7.689 124.306 124.306"><path fill="#6ea924" fill-rule="evenodd" d="M 13.152344 71.847656 C 13.222656 75.464844 14.230469 78.84375 16.003906 81.785156 C 17.800781 84.738281 20.34375 87.183594 23.527344 88.925781 L 53.917969 105.5625 C 57.078125 107.289062 60.511719 108.113281 63.964844 108.035156 C 67.398438 107.945312 70.789062 106.972656 73.898438 105.097656 L 91.890625 94.167969 C 94.585938 92.535156 95.433594 89.0625 93.800781 86.367188 C 92.171875 83.671875 88.695312 82.824219 86 84.453125 L 68.007812 95.382812 L 67.996094 95.402344 C 66.625 96.234375 65.160156 96.679688 63.734375 96.703125 C 62.304688 96.726562 60.816406 96.355469 59.386719 95.574219 L 28.992188 78.9375 C 27.5625 78.152344 26.449219 77.097656 25.71875 75.894531 L 25.699219 75.882812 C 24.949219 74.667969 24.535156 73.195312 24.507812 71.570312 C 24.46875 69.96875 24.828125 68.5 25.53125 67.222656 C 26.230469 65.941406 27.285156 64.824219 28.644531 64.015625 L 61.566406 44.007812 L 61.578125 43.984375 L 94.488281 23.941406 C 95.859375 23.109375 97.3125 22.6875 98.773438 22.652344 C 100.199219 22.628906 101.667969 22.988281 103.121094 23.785156 C 104.464844 24.519531 105.539062 25.496094 106.269531 26.589844 C 106.3125 26.667969 106.351562 26.746094 106.40625 26.800781 C 107.164062 28.050781 107.597656 29.535156 107.628906 31.105469 C 107.6875 34.242188 110.292969 36.726562 113.410156 36.65625 C 116.550781 36.597656 119.03125 33.992188 118.960938 30.875 C 118.878906 27.222656 117.882812 23.820312 116.121094 20.914062 C 116.046875 20.792969 115.976562 20.667969 115.871094 20.554688 C 114.101562 17.757812 111.628906 15.433594 108.578125 13.761719 C 105.417969 12.03125 101.988281 11.207031 98.53125 11.285156 L 98.511719 11.273438 C 95.109375 11.355469 91.707031 12.351562 88.589844 14.25 L 55.699219 34.25 L 22.753906 54.300781 C 19.636719 56.199219 17.1875 58.742188 15.542969 61.753906 C 13.90625 64.742188 13.082031 68.175781 13.152344 71.847656 Z M 13.152344 71.847656 "/><path fill="#9dba9d" fill-rule="evenodd" d="M 83.714844 121.871094 L 91.121094 125.925781 C 94.28125 127.652344 97.714844 128.476562 101.167969 128.398438 C 104.621094 128.320312 108.011719 127.347656 111.097656 125.460938 C 111.222656 125.386719 111.34375 125.316406 111.445312 125.230469 C 114.410156 123.359375 116.734375 120.886719 118.3125 118.007812 C 119.949219 115.019531 120.773438 111.585938 120.691406 107.9375 L 119.726562 64.746094 C 119.644531 61.09375 118.648438 57.691406 116.886719 54.785156 L 116.863281 54.773438 C 115.066406 51.820312 112.523438 49.375 109.363281 47.644531 C 106.207031 45.917969 102.773438 45.09375 99.320312 45.171875 C 95.886719 45.261719 92.496094 46.234375 89.375 48.132812 L 56.855469 67.917969 C 55.972656 68.460938 55.304688 69.179688 54.839844 70.03125 C 53.890625 71.761719 53.875 73.914062 54.976562 75.710938 C 56.617188 78.382812 60.09375 79.230469 62.765625 77.589844 L 95.289062 57.804688 C 96.660156 56.972656 98.125 56.527344 99.550781 56.503906 C 100.976562 56.480469 102.46875 56.851562 103.898438 57.632812 C 105.328125 58.417969 106.441406 59.472656 107.171875 60.675781 C 107.929688 61.921875 108.363281 63.410156 108.394531 64.976562 L 109.359375 108.167969 C 109.394531 109.769531 109.035156 111.238281 108.324219 112.539062 C 107.65625 113.757812 106.691406 114.808594 105.441406 115.621094 C 105.367188 115.664062 105.289062 115.703125 105.210938 115.746094 C 103.808594 116.585938 102.34375 117.03125 100.9375 117.066406 C 99.507812 117.089844 98.019531 116.71875 96.589844 115.9375 L 89.183594 111.882812 C 86.429688 110.375 82.960938 111.390625 81.453125 114.144531 C 79.949219 116.894531 80.941406 120.351562 83.714844 121.871094 Z M 83.714844 121.871094 "/></svg>
