<svg xmlns="http://www.w3.org/2000/svg" xmlns:xlink="http://www.w3.org/1999/xlink" width="345" zoomAndPan="magnify" viewBox="0 0 258.75 93.749996" height="125" preserveAspectRatio="xMidYMid meet" version="1.0"><defs><g></g><clipPath id="ac070ea5fc"><path d="M 124 6 L 167 6 L 167 39 L 124 39 Z M 124 6 " clip-rule="nonzero"></path></clipPath><clipPath id="ebca8d4de9"><path d="M 121.964844 23.109375 L 148.089844 -5.707031 L 179.679688 22.925781 L 153.554688 51.746094 Z M 121.964844 23.109375 " clip-rule="nonzero"></path></clipPath><clipPath id="3487b2c17b"><path d="M 121.964844 23.109375 L 148.089844 -5.707031 L 179.679688 22.925781 L 153.554688 51.746094 Z M 121.964844 23.109375 " clip-rule="nonzero"></path></clipPath><clipPath id="014a7cab7d"><path d="M 139 18 L 164 18 L 164 49 L 139 49 Z M 139 18 " clip-rule="nonzero"></path></clipPath><clipPath id="0435af7175"><path d="M 121.964844 23.109375 L 148.089844 -5.707031 L 179.679688 22.925781 L 153.554688 51.746094 Z M 121.964844 23.109375 " clip-rule="nonzero"></path></clipPath><clipPath id="99a9542570"><path d="M 121.964844 23.109375 L 148.089844 -5.707031 L 179.679688 22.925781 L 153.554688 51.746094 Z M 121.964844 23.109375 " clip-rule="nonzero"></path></clipPath></defs><g fill="#f6f6f6" fill-opacity="1"><g transform="translate(2.907564, 85.110861)"><g><path d="M 16.46875 1.160156 C 13.710938 1.160156 11.292969 0.628906 9.214844 -0.433594 C 7.132812 -1.5 5.5 -2.960938 4.316406 -4.824219 C 3.132812 -6.6875 2.539062 -8.800781 2.539062 -11.171875 C 2.539062 -13.882812 3.242188 -16.167969 4.644531 -18.027344 C 6.046875 -19.890625 7.933594 -21.292969 10.300781 -22.234375 C 12.671875 -23.179688 15.285156 -23.652344 18.136719 -23.652344 C 19.78125 -23.652344 21.304688 -23.519531 22.707031 -23.253906 C 24.109375 -22.984375 25.332031 -22.671875 26.371094 -22.308594 C 27.410156 -21.945312 28.199219 -21.59375 28.730469 -21.257812 L 28.730469 -23.507812 C 28.730469 -26.3125 27.738281 -28.535156 25.753906 -30.179688 C 23.773438 -31.824219 21.355469 -32.648438 18.5 -32.648438 C 16.46875 -32.648438 14.570312 -32.199219 12.804688 -31.304688 C 11.039062 -30.410156 9.648438 -29.164062 8.632812 -27.570312 L 3.988281 -31.050781 C 4.957031 -32.503906 6.167969 -33.757812 7.617188 -34.824219 C 9.070312 -35.886719 10.726562 -36.710938 12.585938 -37.289062 C 14.449219 -37.871094 16.421875 -38.160156 18.5 -38.160156 C 23.53125 -38.160156 27.472656 -36.832031 30.324219 -34.171875 C 33.179688 -31.511719 34.605469 -27.929688 34.605469 -23.433594 L 34.605469 0 L 28.730469 0 L 28.730469 -5.296875 L 28.4375 -5.296875 C 27.808594 -4.230469 26.914062 -3.203125 25.753906 -2.210938 C 24.59375 -1.222656 23.226562 -0.410156 21.65625 0.21875 C 20.085938 0.847656 18.355469 1.160156 16.46875 1.160156 Z M 17.050781 -4.28125 C 19.175781 -4.28125 21.125 -4.8125 22.890625 -5.875 C 24.65625 -6.941406 26.070312 -8.367188 27.132812 -10.15625 C 28.199219 -11.945312 28.730469 -13.90625 28.730469 -16.035156 C 27.617188 -16.808594 26.226562 -17.4375 24.558594 -17.917969 C 22.890625 -18.402344 21.0625 -18.644531 19.082031 -18.644531 C 15.550781 -18.644531 12.960938 -17.917969 11.316406 -16.46875 C 9.671875 -15.019531 8.851562 -13.226562 8.851562 -11.101562 C 8.851562 -9.070312 9.625 -7.425781 11.171875 -6.167969 C 12.71875 -4.910156 14.679688 -4.28125 17.050781 -4.28125 Z M 17.050781 -4.28125 "></path></g></g></g><g fill="#f6f6f6" fill-opacity="1"><g transform="translate(41.428865, 85.110861)"><g><path d="M 1.8125 -31.414062 L 1.8125 -37 L 8.707031 -37 L 8.707031 -31.414062 Z M 18.644531 0.582031 C 15.550781 0.582031 13.058594 -0.351562 11.171875 -2.210938 C 9.285156 -4.074219 8.34375 -6.578125 8.34375 -9.722656 L 8.34375 -47.445312 L 14.511719 -47.445312 L 14.511719 -11.246094 C 14.511719 -9.164062 14.933594 -7.628906 15.78125 -6.636719 C 16.625 -5.648438 17.894531 -5.152344 19.589844 -5.152344 C 20.363281 -5.152344 21.085938 -5.261719 21.765625 -5.476562 C 22.441406 -5.695312 23.09375 -5.996094 23.722656 -6.382812 L 23.722656 -0.363281 C 22.949219 -0.0742188 22.152344 0.15625 21.328125 0.328125 C 20.507812 0.496094 19.613281 0.582031 18.644531 0.582031 Z M 14.148438 -31.414062 L 14.148438 -37 L 23.578125 -37 L 23.578125 -31.414062 Z M 14.148438 -31.414062 "></path></g></g></g><g fill="#f6f6f6" fill-opacity="1"><g transform="translate(67.835187, 85.110861)"><g><path d="M 4.496094 -51.945312 L 10.664062 -51.945312 L 10.664062 0 L 4.496094 0 Z M 4.496094 -51.945312 "></path></g></g></g><g fill="#f6f6f6" fill-opacity="1"><g transform="translate(82.997052, 85.110861)"><g><path d="M 16.46875 1.160156 C 13.710938 1.160156 11.292969 0.628906 9.214844 -0.433594 C 7.132812 -1.5 5.5 -2.960938 4.316406 -4.824219 C 3.132812 -6.6875 2.539062 -8.800781 2.539062 -11.171875 C 2.539062 -13.882812 3.242188 -16.167969 4.644531 -18.027344 C 6.046875 -19.890625 7.933594 -21.292969 10.300781 -22.234375 C 12.671875 -23.179688 15.285156 -23.652344 18.136719 -23.652344 C 19.78125 -23.652344 21.304688 -23.519531 22.707031 -23.253906 C 24.109375 -22.984375 25.332031 -22.671875 26.371094 -22.308594 C 27.410156 -21.945312 28.199219 -21.59375 28.730469 -21.257812 L 28.730469 -23.507812 C 28.730469 -26.3125 27.738281 -28.535156 25.753906 -30.179688 C 23.773438 -31.824219 21.355469 -32.648438 18.5 -32.648438 C 16.46875 -32.648438 14.570312 -32.199219 12.804688 -31.304688 C 11.039062 -30.410156 9.648438 -29.164062 8.632812 -27.570312 L 3.988281 -31.050781 C 4.957031 -32.503906 6.167969 -33.757812 7.617188 -34.824219 C 9.070312 -35.886719 10.726562 -36.710938 12.585938 -37.289062 C 14.449219 -37.871094 16.421875 -38.160156 18.5 -38.160156 C 23.53125 -38.160156 27.472656 -36.832031 30.324219 -34.171875 C 33.179688 -31.511719 34.605469 -27.929688 34.605469 -23.433594 L 34.605469 0 L 28.730469 0 L 28.730469 -5.296875 L 28.4375 -5.296875 C 27.808594 -4.230469 26.914062 -3.203125 25.753906 -2.210938 C 24.59375 -1.222656 23.226562 -0.410156 21.65625 0.21875 C 20.085938 0.847656 18.355469 1.160156 16.46875 1.160156 Z M 17.050781 -4.28125 C 19.175781 -4.28125 21.125 -4.8125 22.890625 -5.875 C 24.65625 -6.941406 26.070312 -8.367188 27.132812 -10.15625 C 28.199219 -11.945312 28.730469 -13.90625 28.730469 -16.035156 C 27.617188 -16.808594 26.226562 -17.4375 24.558594 -17.917969 C 22.890625 -18.402344 21.0625 -18.644531 19.082031 -18.644531 C 15.550781 -18.644531 12.960938 -17.917969 11.316406 -16.46875 C 9.671875 -15.019531 8.851562 -13.226562 8.851562 -11.101562 C 8.851562 -9.070312 9.625 -7.425781 11.171875 -6.167969 C 12.71875 -4.910156 14.679688 -4.28125 17.050781 -4.28125 Z M 17.050781 -4.28125 "></path></g></g></g><g fill="#f6f6f6" fill-opacity="1"><g transform="translate(121.518352, 85.110861)"><g><path d="M 17.410156 1.160156 C 14.65625 1.160156 12.222656 0.714844 10.121094 -0.179688 C 8.015625 -1.074219 6.277344 -2.285156 4.898438 -3.808594 C 3.519531 -5.332031 2.492188 -6.988281 1.8125 -8.777344 L 7.328125 -11.246094 C 8.292969 -9.019531 9.699219 -7.304688 11.535156 -6.09375 C 13.375 -4.886719 15.476562 -4.28125 17.847656 -4.28125 C 20.121094 -4.28125 22.019531 -4.738281 23.542969 -5.660156 C 25.066406 -6.578125 25.828125 -7.933594 25.828125 -9.722656 C 25.828125 -10.835938 25.511719 -11.765625 24.882812 -12.515625 C 24.253906 -13.265625 23.335938 -13.90625 22.128906 -14.4375 C 20.917969 -14.96875 19.441406 -15.453125 17.703125 -15.886719 L 13.203125 -17.050781 C 11.460938 -17.53125 9.816406 -18.210938 8.269531 -19.082031 C 6.722656 -19.949219 5.476562 -21.074219 4.535156 -22.453125 C 3.589844 -23.832031 3.121094 -25.511719 3.121094 -27.496094 C 3.121094 -29.722656 3.773438 -31.632812 5.078125 -33.226562 C 6.382812 -34.824219 8.101562 -36.042969 10.230469 -36.890625 C 12.359375 -37.738281 14.628906 -38.160156 17.050781 -38.160156 C 19.175781 -38.160156 21.171875 -37.859375 23.035156 -37.253906 C 24.894531 -36.648438 26.527344 -35.753906 27.929688 -34.570312 C 29.335938 -33.382812 30.398438 -31.921875 31.125 -30.179688 L 25.753906 -27.714844 C 24.835938 -29.550781 23.601562 -30.832031 22.054688 -31.558594 C 20.507812 -32.285156 18.789062 -32.648438 16.902344 -32.648438 C 14.871094 -32.648438 13.105469 -32.199219 11.609375 -31.304688 C 10.109375 -30.410156 9.359375 -29.1875 9.359375 -27.640625 C 9.359375 -26.09375 9.976562 -24.933594 11.207031 -24.160156 C 12.441406 -23.386719 13.953125 -22.757812 15.742188 -22.273438 L 21.113281 -20.894531 C 24.738281 -19.976562 27.472656 -18.609375 29.308594 -16.796875 C 31.148438 -14.980469 32.066406 -12.769531 32.066406 -10.15625 C 32.066406 -7.835938 31.414062 -5.828125 30.109375 -4.136719 C 28.800781 -2.441406 27.035156 -1.136719 24.8125 -0.21875 C 22.585938 0.703125 20.121094 1.160156 17.410156 1.160156 Z M 17.410156 1.160156 "></path></g></g></g><g fill="#eff5ef" fill-opacity="1"><g transform="translate(155.687638, 85.110861)"><g><path d="M 29.816406 1.160156 C 25.996094 1.160156 22.464844 0.460938 19.226562 -0.941406 C 15.984375 -2.347656 13.167969 -4.292969 10.773438 -6.785156 C 8.378906 -9.273438 6.515625 -12.152344 5.1875 -15.417969 C 3.855469 -18.679688 3.191406 -22.199219 3.191406 -25.972656 C 3.191406 -29.746094 3.855469 -33.265625 5.1875 -36.527344 C 6.515625 -39.792969 8.378906 -42.671875 10.773438 -45.160156 C 13.167969 -47.652344 15.984375 -49.597656 19.226562 -51.003906 C 22.464844 -52.40625 25.996094 -53.105469 29.816406 -53.105469 C 33.636719 -53.105469 37.167969 -52.40625 40.410156 -51.003906 C 43.648438 -49.597656 46.46875 -47.652344 48.863281 -45.160156 C 51.257812 -42.671875 53.117188 -39.792969 54.449219 -36.527344 C 55.777344 -33.265625 56.441406 -29.746094 56.441406 -25.972656 C 56.441406 -22.199219 55.777344 -18.679688 54.449219 -15.417969 C 53.117188 -12.152344 51.257812 -9.273438 48.863281 -6.785156 C 46.46875 -4.292969 43.648438 -2.347656 40.410156 -0.941406 C 37.167969 0.460938 33.636719 1.160156 29.816406 1.160156 Z M 29.816406 -4.714844 C 33.589844 -4.714844 37.011719 -5.609375 40.082031 -7.398438 C 43.15625 -9.191406 45.609375 -11.691406 47.445312 -14.910156 C 49.285156 -18.125 50.203125 -21.8125 50.203125 -25.972656 C 50.203125 -30.179688 49.285156 -33.878906 47.445312 -37.074219 C 45.609375 -40.265625 43.15625 -42.753906 40.082031 -44.546875 C 37.011719 -46.335938 33.589844 -47.230469 29.816406 -47.230469 C 26.09375 -47.230469 22.683594 -46.335938 19.589844 -44.546875 C 16.492188 -42.753906 14.027344 -40.265625 12.1875 -37.074219 C 10.351562 -33.878906 9.429688 -30.179688 9.429688 -25.972656 C 9.429688 -21.8125 10.351562 -18.125 12.1875 -14.910156 C 14.027344 -11.691406 16.492188 -9.191406 19.589844 -7.398438 C 22.683594 -5.609375 26.09375 -4.714844 29.816406 -4.714844 Z M 29.816406 -4.714844 "></path></g></g></g><g fill="#eff5ef" fill-opacity="1"><g transform="translate(215.319485, 85.110861)"><g><path d="M 20.242188 1.160156 C 17.726562 1.160156 15.234375 0.628906 12.769531 -0.433594 C 10.300781 -1.5 8.125 -3.070312 6.238281 -5.152344 C 4.351562 -7.230469 2.972656 -9.816406 2.105469 -12.914062 L 7.980469 -15.308594 C 8.800781 -12.308594 10.300781 -9.792969 12.476562 -7.761719 C 14.65625 -5.730469 17.289062 -4.714844 20.386719 -4.714844 C 22.320312 -4.714844 24.097656 -5.066406 25.71875 -5.769531 C 27.339844 -6.46875 28.644531 -7.496094 29.636719 -8.851562 C 30.628906 -10.207031 31.125 -11.851562 31.125 -13.785156 C 31.125 -15.527344 30.699219 -17 29.855469 -18.210938 C 29.007812 -19.417969 27.738281 -20.496094 26.046875 -21.4375 C 24.351562 -22.382812 22.273438 -23.289062 19.804688 -24.160156 L 16.542969 -25.320312 C 15.089844 -25.851562 13.628906 -26.492188 12.152344 -27.242188 C 10.675781 -27.992188 9.324219 -28.910156 8.089844 -30 C 6.855469 -31.085938 5.875 -32.394531 5.152344 -33.917969 C 4.425781 -35.441406 4.0625 -37.242188 4.0625 -39.320312 C 4.0625 -41.835938 4.738281 -44.132812 6.09375 -46.214844 C 7.449219 -48.292969 9.308594 -49.960938 11.679688 -51.21875 C 14.050781 -52.476562 16.78125 -53.105469 19.878906 -53.105469 C 23.117188 -53.105469 25.839844 -52.511719 28.039062 -51.328125 C 30.242188 -50.144531 31.980469 -48.742188 33.265625 -47.121094 C 34.546875 -45.5 35.402344 -44.011719 35.839844 -42.660156 L 30.109375 -40.191406 C 29.816406 -41.207031 29.261719 -42.261719 28.4375 -43.347656 C 27.617188 -44.4375 26.515625 -45.355469 25.136719 -46.105469 C 23.761719 -46.855469 22.03125 -47.230469 19.949219 -47.230469 C 18.257812 -47.230469 16.675781 -46.890625 15.199219 -46.214844 C 13.722656 -45.535156 12.539062 -44.605469 11.644531 -43.421875 C 10.75 -42.234375 10.300781 -40.871094 10.300781 -39.320312 C 10.300781 -37.144531 11.171875 -35.429688 12.914062 -34.171875 C 14.65625 -32.914062 17 -31.777344 19.949219 -30.761719 L 23.359375 -29.601562 C 24.910156 -29.066406 26.492188 -28.414062 28.113281 -27.640625 C 29.734375 -26.867188 31.246094 -25.875 32.648438 -24.667969 C 34.050781 -23.457031 35.1875 -21.96875 36.058594 -20.203125 C 36.925781 -18.441406 37.363281 -16.324219 37.363281 -13.855469 C 37.363281 -11.195312 36.84375 -8.910156 35.804688 -7 C 34.761719 -5.089844 33.398438 -3.53125 31.703125 -2.320312 C 30.011719 -1.113281 28.160156 -0.230469 26.152344 0.328125 C 24.148438 0.882812 22.175781 1.160156 20.242188 1.160156 Z M 20.242188 1.160156 "></path></g></g></g><g clip-path="url(#ac070ea5fc)"><g clip-path="url(#ebca8d4de9)"><g clip-path="url(#3487b2c17b)"><path fill="#6ea924" d="M 125.148438 21.089844 C 124.867188 22.375 124.9375 23.652344 125.3125 24.84375 C 125.699219 26.039062 126.390625 27.121094 127.367188 28.003906 L 136.699219 36.464844 C 137.667969 37.34375 138.8125 37.925781 140.039062 38.191406 C 141.261719 38.449219 142.542969 38.394531 143.800781 37.996094 L 151.085938 35.65625 C 152.179688 35.308594 152.773438 34.152344 152.425781 33.0625 C 152.078125 31.972656 150.921875 31.375 149.828125 31.722656 L 142.542969 34.0625 L 142.535156 34.066406 C 141.980469 34.246094 141.425781 34.277344 140.917969 34.164062 C 140.414062 34.050781 139.917969 33.796875 139.480469 33.398438 L 130.148438 24.9375 C 129.707031 24.539062 129.402344 24.074219 129.246094 23.585938 L 129.242188 23.578125 C 129.078125 23.085938 129.058594 22.53125 129.1875 21.953125 C 129.308594 21.386719 129.558594 20.898438 129.917969 20.503906 C 130.273438 20.109375 130.742188 19.804688 131.289062 19.632812 L 144.625 15.355469 L 144.628906 15.347656 L 157.964844 11.054688 C 158.519531 10.878906 159.070312 10.851562 159.585938 10.960938 C 160.09375 11.074219 160.582031 11.328125 161.027344 11.730469 C 161.441406 12.105469 161.738281 12.542969 161.902344 12.992188 C 161.910156 13.019531 161.917969 13.050781 161.933594 13.078125 C 162.097656 13.582031 162.125 14.144531 162 14.703125 C 161.753906 15.816406 162.464844 16.914062 163.574219 17.152344 C 164.6875 17.398438 165.785156 16.6875 166.027344 15.582031 C 166.308594 14.285156 166.242188 12.996094 165.867188 11.820312 C 165.851562 11.769531 165.835938 11.71875 165.808594 11.671875 C 165.421875 10.53125 164.746094 9.5 163.808594 8.652344 C 162.835938 7.773438 161.695312 7.191406 160.464844 6.925781 L 160.460938 6.917969 C 159.25 6.660156 157.964844 6.722656 156.699219 7.128906 L 143.378906 11.40625 L 130.03125 15.699219 C 128.769531 16.109375 127.6875 16.800781 126.851562 17.722656 C 126.019531 18.640625 125.433594 19.785156 125.148438 21.089844 Z M 125.148438 21.089844 " fill-opacity="1" fill-rule="evenodd"></path></g></g></g><g clip-path="url(#014a7cab7d)"><g clip-path="url(#0435af7175)"><g clip-path="url(#99a9542570)"><path fill="#eff5ef" d="M 145.847656 44.757812 L 148.121094 46.816406 C 149.09375 47.699219 150.234375 48.28125 151.464844 48.546875 C 152.691406 48.8125 153.972656 48.753906 155.222656 48.347656 C 155.273438 48.332031 155.320312 48.316406 155.363281 48.296875 C 156.570312 47.886719 157.601562 47.210938 158.40625 46.324219 C 159.238281 45.410156 159.820312 44.265625 160.101562 42.96875 L 163.421875 27.621094 C 163.703125 26.320312 163.640625 25.035156 163.265625 23.855469 L 163.257812 23.851562 C 162.871094 22.65625 162.179688 21.574219 161.210938 20.695312 C 160.242188 19.816406 159.097656 19.234375 157.871094 18.96875 C 156.648438 18.707031 155.367188 18.765625 154.105469 19.171875 L 140.929688 23.40625 C 140.574219 23.523438 140.277344 23.722656 140.039062 23.984375 C 139.558594 24.515625 139.367188 25.273438 139.605469 26 C 139.957031 27.085938 141.113281 27.679688 142.199219 27.328125 L 155.375 23.09375 C 155.929688 22.914062 156.484375 22.882812 156.992188 22.996094 C 157.496094 23.105469 157.992188 23.363281 158.429688 23.761719 C 158.871094 24.160156 159.175781 24.628906 159.332031 25.113281 C 159.492188 25.621094 159.519531 26.183594 159.398438 26.738281 L 156.074219 42.089844 C 155.953125 42.65625 155.699219 43.144531 155.339844 43.546875 C 155 43.917969 154.570312 44.210938 154.058594 44.390625 C 154.027344 44.398438 153.996094 44.40625 153.964844 44.414062 C 153.398438 44.59375 152.84375 44.625 152.34375 44.519531 C 151.835938 44.40625 151.339844 44.148438 150.902344 43.75 L 148.628906 41.691406 C 147.78125 40.921875 146.472656 40.988281 145.703125 41.832031 C 144.9375 42.679688 144.996094 43.984375 145.847656 44.757812 Z M 145.847656 44.757812 " fill-opacity="1" fill-rule="evenodd"></path></g></g></g></svg>